# xmcd CD database file
#
# Track frame offsets:
#	150
#	21756
#	35641
#	62208
#	88889
#	103588
#	128349
#	141247
#	160101
#	180217
#	189913
#	219173
#	237135
#	254560
#	268410
#	279402
#
# Disc length: 3922 seconds
#
# Revision: 0
# Processed by: cddbd v1.5.1PL2 Copyright (c) Steve Scherf et al.
# Submitted via: CDex 1.51
#
DISCID=dd0f5010
DTITLE=Various Artist - best of bungalow
DYEAR=1900
DGENRE=Techno
TTITLE0=Piep
TTITLE1=And the winner is
TTITLE2=Initials B.B
TTITLE3=Ride My Bike
TTITLE4=Disco Rat
TTITLE5=Desktop
TTITLE6=Snatch
TTITLE7=So Chique
TTITLE8=Au Au Au
TTITLE9=Evolution is easy with your shoes on
TTITLE10=Psycochutney
TTITLE11=Quando que ono pori canto
TTITLE12=Warp Back To Earth
TTITLE13=Joe Le Taxi
TTITLE14=Der letzte Popsong
TTITLE15=M.F.P.D.A(remixed by Mexican Institute Of Sound)
EXTD=
EXTT0=
EXTT1=
EXTT2=
EXTT3=
EXTT4=
EXTT5=
EXTT6=
EXTT7=
EXTT8=
EXTT9=
EXTT10=
EXTT11=
EXTT12=
EXTT13=
EXTT14=
EXTT15=
PLAYORDER=
